<?xml version="1.0" encoding="UTF-8"?>
<!DOCTYPE svg PUBLIC "-//W3C//DTD SVG 1.1//EN" "http://www.w3.org/Graphics/SVG/1.1/DTD/svg11.dtd">
<!-- Creator: CorelDRAW -->
<svg xmlns="http://www.w3.org/2000/svg" xml:space="preserve" width="2048px" height="2048px" style="shape-rendering:geometricPrecision; text-rendering:geometricPrecision; image-rendering:optimizeQuality; fill-rule:evenodd; clip-rule:evenodd"
viewBox="0 0 2048 2048"
 xmlns:xlink="http://www.w3.org/1999/xlink">
 <defs>
  <style type="text/css">
   <![CDATA[
    .fil4 {fill:none}
    .fil2 {fill:#676767}
    .fil3 {fill:gray}
    .fil1 {fill:#7F7F7F;fill-rule:nonzero}
    .fil0 {fill:#A8A8A8;fill-rule:nonzero}
   ]]>
  </style>
 </defs>
 <g id="Layer_x0020_1">
  <metadata id="CorelCorpID_0Corel-Layer"/>
  <g id="_584170648">
   <path id="_584172376" class="fil0" d="M1052.76 442.596c47.8075,-97.5343 119.281,-142.52 211.61,-152.335 85.8308,-9.12402 188.581,13.8803 306.816,53.1272l37.6973 12.5138 -17.4484 35.5973c-46.6382,95.1497 -116.282,151.926 -206.441,174.469 -86.5383,21.6366 -190.982,10.5284 -311.164,-29.3622l-21.0697 -94.0099z"/>
   <path id="_584172424" class="fil1" d="M1061.44 255.999c39.3059,75.7583 58.2107,152.082 57.8339,228.934 -0.37441,76.6442 -19.9382,153.06 -57.5622,229.258l-62.2453 -30.7146c33.0118,-66.8552 50.1721,-133.142 50.4945,-198.815 0.320079,-65.4662 -16.0961,-131.084 -50.2229,-196.859l61.702 -31.8036z"/>
   <path id="_584172688" class="fil2" d="M1552.47 1055.31c0,-62.152 -35.7815,-115.309 -87.5493,-141.853 14.224,-23.7969 22.6961,-51.2788 22.6961,-80.9646 0,-88.3241 -71.5642,-160.051 -159.924,-160.051 -13.4232,0 -26.3351,2.21457 -38.8063,5.28544 -29.2465,-34.1941 -72.5044,-56.3906 -121.082,-56.3906 -51.443,0 -96.7879,24.574 -126.032,62.4426 -29.2335,-37.8685 -74.4154,-62.4426 -126.019,-62.4426 -29.361,0 -56.3918,8.29961 -80.0268,22.0347 -23.4709,-13.735 -50.6185,-22.0347 -79.8627,-22.0347 -88.3253,0 -159.878,71.5512 -159.878,159.878 0,0 0,0.161811 0,0.161811 -86.8985,1.76221 -156.864,72.5032 -156.864,159.728 0,40.7303 15.6591,77.452 40.5685,105.582 -24.9095,28.2496 -40.5685,65.0162 -40.5685,105.574 0,61.3394 34.8425,113.883 85.4623,140.88 -0.823229,6.24686 -1.92402,12.6343 -1.92402,19.0087 0,76.8379 54.1418,140.869 126.354,156.366 0,1.30984 -0.323622,2.40945 -0.323622,3.68504 0,88.3253 71.5524,159.878 159.877,159.878 0,88.3713 71.5654,159.924 159.889,159.924 66.4524,0 123.494,-40.4422 147.614,-98.0954 4.13859,0.335433 8.1378,1.27323 12.2752,1.27323 88.3595,0 160.087,-71.7249 160.087,-160.05 0,-3.5126 -0.823229,-6.71103 -1.14803,-10.2236 61.3406,-22.3713 105.26,-80.6398 105.26,-149.666 0,-4.4504 -0.938977,-8.78623 -1.27559,-13.2484 56.7166,-24.6083 96.5079,-80.8371 96.5079,-146.629 0,-10.2236 -1.14685,-19.9595 -3.07087,-29.5689 40.8933,-29.0705 67.7623,-76.5012 67.7623,-130.482z"/>
   <path id="_584172208" class="fil3" d="M998.186 844.64c7.63819,64.03 62.106,113.721 128.395,113.721 62.9752,0 115.356,-44.9044 127.005,-104.483 0.498426,5.11063 0.938977,10.2236 0.938977,15.4973 0,71.563 -57.9792,129.382 -129.37,129.382 -71.4012,0 -129.382,-57.9804 -129.382,-129.382 0,-8.46142 0.811418,-16.761 2.41181,-24.7358z"/>
   <path id="_584172040" class="fil3" d="M758.561 1118.08c0,-5.76142 0.648426,-11.4874 1.63465,-16.924 5.23937,43.7445 42.6555,77.7662 87.9993,77.7662 42.9803,0 78.9142,-30.8209 86.7249,-71.5536 0.498426,3.5126 0.823229,7.03583 0.823229,10.7114 0,48.867 -39.6296,88.4859 -88.6489,88.4859 -48.9142,0 -88.5331,-39.6189 -88.5331,-88.4859z"/>
   <path id="_584171680" class="fil3" d="M709.53 844.64c7.68426,64.03 62.3256,113.721 128.441,113.721 62.9292,0 115.31,-44.9044 126.808,-104.483 0.811418,5.11063 1.13622,10.2236 1.13622,15.4973 0,71.563 -57.9792,129.382 -129.38,129.382 -71.3906,0 -129.371,-57.9804 -129.371,-129.382 0,-8.46142 0.938977,-16.761 2.36575,-24.7358z"/>
   <path id="_584171608" class="fil3" d="M500.459 937.254c0,-5.43544 0.649607,-10.5484 1.58858,-15.4973 4.78701,39.9555 38.8063,71.1119 80.1875,71.1119 39.2941,0 72.0508,-28.1327 79.376,-65.5016 0.486615,3.1878 0.648426,6.37441 0.648426,9.7252 0,44.7414 -36.2681,81.0107 -80.9634,81.0107 -44.5689,0 -80.8371,-36.2693 -80.8371,-80.8489z"/>
   <path id="_584171752" class="fil3" d="M549.977 1137.59c0,-4.66063 0.486615,-8.96103 1.2626,-13.2957 4.17402,34.1941 33.2445,60.7252 68.5394,60.7252 33.6945,0 61.6654,-23.9587 67.7162,-55.7292 0.486615,2.7 0.648426,5.38937 0.648426,8.29961 0,38.1449 -30.9945,68.9776 -69.026,68.9776 -38.3079,0 -69.1406,-30.8327 -69.1406,-68.9776z"/>
   <path id="_584170864" class="fil3" d="M669.947 1394.91c-48.9036,0 -88.6501,-39.6189 -88.6501,-88.6501 0,-5.76024 0.614174,-11.3705 1.76221,-16.924 5.22638,43.9087 42.6083,77.928 87.8257,77.928 43.1433,0 79.0867,-30.8209 86.8997,-71.5512 0.486615,3.34843 0.777166,7.03583 0.777166,10.5473 0,49.0311 -39.7465,88.6501 -88.6146,88.6501z"/>
   <path id="_584171464" class="fil3" d="M815.763 1544.58c-49.0181,0 -88.6489,-39.6307 -88.6489,-88.6512 0,-5.77205 0.660237,-11.3693 1.76221,-16.9335 5.11063,43.9193 42.4807,77.9386 87.8257,77.9386 43.1422,0 79.0867,-30.8327 86.8985,-71.726 0.487796,3.68504 0.650788,7.19764 0.650788,10.7209 0,49.0205 -39.6189,88.6512 -88.4883,88.6512z"/>
   <path id="_584171368" class="fil3" d="M965.916 1689.13c-48.8563,0 -88.4871,-39.6296 -88.4871,-88.4989 0,-5.92323 0.452363,-11.4862 1.59921,-17.0858 5.27363,43.9205 42.6437,77.9398 87.8268,77.9398 43.1433,0 78.9249,-30.8327 86.8997,-71.563 0.486615,3.52323 0.649607,7.03583 0.649607,10.7091 0,48.8693 -39.6189,88.4989 -88.4883,88.4989z"/>
   <path id="_584170912" class="fil3" d="M1213.8 1491.87c-49.03,0 -88.6489,-39.7926 -88.6489,-88.6619 0,-5.92323 0.649607,-11.5205 1.58858,-16.9228 5.27363,43.7575 42.6555,77.7768 88.0359,77.7768 42.9792,0 78.8894,-30.6709 86.8985,-71.5642 0.452363,3.51142 0.452363,7.03583 0.452363,10.7102 0,49.0311 -39.4229,88.6619 -88.3264,88.6619z"/>
   <path id="_584171440" class="fil3" d="M1394.01 1123.67c-48.9154,0 -88.6607,-39.7796 -88.6607,-88.6489 0,-5.76024 0.614174,-11.3599 1.76102,-16.9228 5.113,43.9181 42.4949,77.9398 87.8398,77.9398 43.141,0 78.9119,-30.8327 86.8867,-71.7272 0.498426,3.5126 0.823229,7.03701 0.823229,10.7102 0,48.8693 -39.7937,88.6489 -88.6501,88.6489z"/>
   <path id="_584170072" class="fil3" d="M1043.07 1550.41c-49.0181,0 -88.6489,-39.6307 -88.6489,-88.6501 0,-5.77205 0.660237,-11.3705 1.76221,-16.9347 5.11063,43.9193 42.4807,77.9398 87.8257,77.9398 43.1433,0 79.0867,-30.8327 86.8997,-71.7272 0.486615,3.68622 0.649607,7.19764 0.649607,10.7221 0,49.0193 -39.6189,88.6501 -88.4883,88.6501z"/>
   <path id="_584170696" class="fil3" d="M970.306 1341.66c-49.0193,0 -88.6501,-39.6296 -88.6501,-88.6501 0,-5.77205 0.660237,-11.3705 1.76221,-16.9347 5.11063,43.9193 42.4819,77.9398 87.8257,77.9398 43.1433,0 79.0867,-30.8327 86.8997,-71.726 0.486615,3.68504 0.649607,7.19764 0.649607,10.7209 0,49.0205 -39.6189,88.6501 -88.4871,88.6501z"/>
   <path id="_584170216" class="fil3" d="M1147.44 1201.28c-49.0181,0 -88.6489,-39.6296 -88.6489,-88.6501 0,-5.77205 0.660237,-11.3705 1.76221,-16.9347 5.11063,43.9205 42.4807,77.9398 87.8257,77.9398 43.1422,0 79.0867,-30.8327 86.8997,-71.726 0.486615,3.68504 0.649607,7.19764 0.649607,10.7209 0,49.0205 -39.6189,88.6501 -88.4883,88.6501z"/>
   <path id="_584170504" class="fil3" d="M1251.82 1340.45c-49.0181,0 -88.6489,-39.6296 -88.6489,-88.6501 0,-5.77205 0.660237,-11.3705 1.76221,-16.9347 5.11063,43.9193 42.4807,77.9398 87.8257,77.9398 43.1422,0 79.0867,-30.8327 86.8985,-71.7272 0.486615,3.68622 0.650788,7.19764 0.650788,10.7221 0,49.0205 -39.6189,88.6501 -88.4883,88.6501z"/>
  </g>
 </g>
 <rect class="fil4" width="2048" height="2048"/>
</svg>
