<?xml version="1.0" encoding="UTF-8"?>
<!DOCTYPE svg PUBLIC "-//W3C//DTD SVG 1.1//EN" "http://www.w3.org/Graphics/SVG/1.1/DTD/svg11.dtd">
<!-- Creator: CorelDRAW -->
<svg xmlns="http://www.w3.org/2000/svg" xml:space="preserve" width="2048px" height="2048px" style="shape-rendering:geometricPrecision; text-rendering:geometricPrecision; image-rendering:optimizeQuality; fill-rule:evenodd; clip-rule:evenodd"
viewBox="0 0 2048 2048"
 xmlns:xlink="http://www.w3.org/1999/xlink">
 <defs>
  <style type="text/css">
   <![CDATA[
    .fil4 {fill:none}
    .fil1 {fill:#3A3A3A;fill-rule:nonzero}
    .fil3 {fill:#5C5C5C;fill-rule:nonzero}
    .fil2 {fill:#707070;fill-rule:nonzero}
    .fil0 {fill:#9A9A9A;fill-rule:nonzero}
   ]]>
  </style>
 </defs>
 <g id="Layer_x0020_1">
  <metadata id="CorelCorpID_0Corel-Layer"/>
  <g id="_419083552">
   <g>
    <path id="_419083504" class="fil0" d="M996.011 565.035c-92.3824,-24.254 -167.231,-55.0784 -224.77,-92.2737 -60.0308,-38.8087 -101.302,-84.6142 -124.062,-137.203l-10.6713 -24.6567 24.3851 -11.3008c51.9272,-24.0614 113.186,-30.7559 183.821,-19.7528 67.7469,10.552 144.141,37.3784 229.216,80.7721l-77.9186 204.415z"/>
    <path id="_419083600" class="fil1" d="M990.361 730.208c-7.60394,-86.1922 -0.846851,-168.92 20.3551,-248.159 21.137,-78.9981 56.7225,-154.357 106.834,-226.049l52.7244 36.8327c-45.5859,65.217 -77.9776,133.849 -97.2473,205.866 -19.2047,71.7792 -25.2921,147.108 -18.3354,225.96l-64.3312 5.54882z"/>
   </g>
   <g>
    <path id="_419084104" class="fil2" d="M1758.22 1269.19c-37.3618,164.786 -122.538,304.914 -230.042,398.253 -109.732,95.2749 -243,142.275 -373.792,118.42 -27.6697,-5.04567 -53.9374,-12.9827 -78.6816,-23.524 -18.5847,-7.9193 -36.3296,-17.2441 -53.1804,-27.8622 -16.852,10.6181 -34.5945,19.9429 -53.1815,27.8622 -24.7429,10.5413 -51.0071,18.4784 -78.6804,23.524 -130.791,23.8547 -264.06,-23.1461 -373.792,-118.42 -107.504,-93.339 -192.682,-233.468 -230.043,-398.253 -39.4973,-174.202 -6.87166,-339.15 67.1315,-466.088 45.8823,-78.6993 107.743,-142.978 178.349,-186.09 71.7804,-43.8284 152.554,-65.9067 234.973,-59.3623 86.8512,6.89764 174.906,45.4583 255.326,123.704 79.3831,-76.1528 171.269,-114.65 263.203,-121.037 82.0347,-5.69882 163.788,14.2547 236.47,55.8969 72.0567,41.2831 135.235,103.984 180.828,184.161 68.869,121.115 97.4528,282.083 55.1126,468.815z"/>
    <path id="_419083864" class="fil3" d="M1191.21 1790.72c-12.2823,-1.00866 -24.5634,-2.62323 -36.8244,-4.85906 -27.6697,-5.04567 -53.9374,-12.9827 -78.6816,-23.524 -18.0437,-7.68898 -35.2961,-16.7032 -51.7075,-26.9386l-1.07244 -0.923623 -0.168898 0.145276 -0.231496 -0.145276c-16.852,10.6181 -34.5945,19.9429 -53.1815,27.8622 -24.7429,10.5413 -51.0071,18.4784 -78.6804,23.524 -12.1087,2.20866 -24.2398,3.80551 -36.3709,4.81772 -70.7812,-7.98544 -139.89,-52.1811 -199.465,-123.237 -78.2599,-93.339 -140.265,-233.468 -167.463,-398.253 -28.754,-174.202 -5.00433,-339.15 48.8681,-466.088 33.4004,-78.6993 78.4323,-142.978 129.832,-186.09 36.5658,-30.6697 76.3371,-50.6859 117.481,-57.6993 81.541,10.2 163.658,48.6756 239.062,122.041l0.220866 -0.207874 0.157087 0.207874 1.01102 -1.31811c73.8957,-70.3536 158.523,-108.226 243.892,-118.061 41.3906,6.50434 81.7394,25.0382 118.841,54.2386 52.4552,41.2831 98.4473,103.984 131.636,184.161 50.1355,121.115 70.9418,282.083 40.1209,468.815 -27.1973,164.786 -89.204,304.914 -167.464,398.253 -59.6729,71.1733 -128.91,115.4 -199.812,123.279z"/>
   </g>
  </g>
 </g>
 <rect class="fil4" width="2048" height="2048"/>
</svg>
