<?xml version="1.0" encoding="UTF-8"?>
<!DOCTYPE svg PUBLIC "-//W3C//DTD SVG 1.1//EN" "http://www.w3.org/Graphics/SVG/1.1/DTD/svg11.dtd">
<!-- Creator: CorelDRAW -->
<svg xmlns="http://www.w3.org/2000/svg" xml:space="preserve" width="2048px" height="2048px" style="shape-rendering:geometricPrecision; text-rendering:geometricPrecision; image-rendering:optimizeQuality; fill-rule:evenodd; clip-rule:evenodd"
viewBox="0 0 2048 2048"
 xmlns:xlink="http://www.w3.org/1999/xlink">
 <defs>
  <style type="text/css">
   <![CDATA[
    .fil5 {fill:none}
    .fil4 {fill:#E6E6E7}
    .fil1 {fill:#676767;fill-rule:nonzero}
    .fil2 {fill:#727272;fill-rule:nonzero}
    .fil0 {fill:#BEBEBE;fill-rule:nonzero}
    .fil3 {fill:#E6E6E7;fill-rule:nonzero}
   ]]>
  </style>
 </defs>
 <g id="Layer_x0020_1">
  <metadata id="CorelCorpID_0Corel-Layer"/>
  <g id="_586067752">
   <path id="_586069000" class="fil0" d="M1249.52 1174.12l29.8807 422.802c0.405118,5.75552 0.604725,11.2748 0.604725,16.5473 0,40.4091 -10.3417,76.7138 -26.5524,103.924 -15.45,25.9382 -36.4488,43.6016 -58.7398,48.1926 -3.94725,0.811418 -7.8319,1.23071 -11.6232,1.23071l-272.615 0c-3.4004,0 -7.03938,-0.383859 -10.8839,-1.12323 -22.5473,-4.35355 -43.7374,-22.0429 -59.302,-48.1595 -16.2992,-27.3437 -26.687,-63.913 -26.687,-104.613 0,-4.74331 0.184252,-9.95552 0.561024,-15.6543l26.8099 -404.501c43.2189,2.4437 86.452,3.37914 129.464,3.09213 20.9055,-0.140551 41.8099,-0.612993 62.7083,-1.4126 72.1713,-2.75906 144.516,-9.31772 216.375,-20.3256z"/>
   <g>
    <path id="_586068808" class="fil1" d="M1020.03 281.184c57.2953,0 114.839,6.22914 171.314,17.9681 159.58,33.1713 308.948,110.743 418.532,216.353 111.386,107.349 182.127,243.729 182.127,392.612 0,31.7079 -3.29292,64.2012 -10.1799,97.3288 -31.617,152.1 -430.957,233.934 -811.533,235.765 -108.177,0.519685 -214.486,-4.97126 -309.715,-16.6902 -96.5953,-11.8866 -183.084,-30.3024 -250.331,-55.4965 -106.031,-39.7252 -166.556,-97.6749 -152.133,-175.827 37.2012,-201.546 129.102,-387.44 268.869,-518.638 127.068,-119.281 293.12,-193.375 493.049,-193.375z"/>
    <path id="_586068760" class="fil2" d="M1020.03 281.184c54.9071,0 110.041,5.72126 164.245,16.5295 122.708,40.2839 235.127,106.574 322.342,190.629 111.385,107.349 182.127,243.729 182.127,392.611 0,31.7091 -3.2941,64.2012 -10.1811,97.33 -31.6158,152.099 -430.957,233.933 -811.531,235.765 -108.178,0.519685 -214.486,-4.97244 -309.715,-16.6914 -43.5426,-5.35867 -85.0288,-12.0437 -123.627,-20.0776 -8.04922,-2.66575 -15.8705,-5.41654 -23.4449,-8.25473 -106.031,-39.7252 -166.556,-97.6749 -152.133,-175.827 37.2012,-201.546 129.102,-387.44 268.869,-518.638 127.068,-119.281 293.12,-193.375 493.049,-193.375z"/>
    <path id="_586068664" class="fil3" d="M761.636 549.841c14.5665,-9.94017 18.3154,-29.8087 8.3752,-44.3752 -9.94017,-14.5654 -29.8075,-18.3142 -44.374,-8.37402 -116.159,79.6182 -189.301,162.073 -238.119,247.681 -48.75,85.4847 -72.6107,172.756 -90.678,263.1 -3.45118,17.3268 7.79764,34.174 25.1244,37.6252 17.3268,3.45118 34.1729,-7.79764 37.624,-25.1244 16.976,-84.8883 39.0969,-166.364 83.4284,-244.102 44.2607,-77.6174 111.311,-152.88 218.619,-226.43z"/>
    <ellipse id="_586068304" class="fil4" cx="1536.25" cy="900.547" rx="64.2466" ry="85.6619"/>
    <ellipse id="_586068400" class="fil4" transform="matrix(0.28377 -0.179737 0.358098 0.565369 1508.51 625.722)" rx="96.0001" ry="128"/>
    <ellipse id="_586067632" class="fil4" cx="1280.01" cy="736.464" rx="95.9982" ry="85.6619"/>
    <ellipse id="_586067512" class="fil4" cx="800.018" cy="1014.12" rx="95.9982" ry="85.6619"/>
    <ellipse id="_586068112" class="fil4" cx="1056.01" cy="552.349" rx="63.9992" ry="57.1083"/>
    <ellipse id="_586068016" class="fil4" cx="816.018" cy="730.069" rx="79.9981" ry="71.3846"/>
    <ellipse id="_586068136" class="fil4" cx="1216.01" cy="1021.01" rx="63.9992" ry="57.1083"/>
   </g>
  </g>
 </g>
 <rect class="fil5" width="2048" height="2048"/>
</svg>
