<?xml version="1.0" encoding="UTF-8"?>
<!DOCTYPE svg PUBLIC "-//W3C//DTD SVG 1.1//EN" "http://www.w3.org/Graphics/SVG/1.1/DTD/svg11.dtd">
<!-- Creator: CorelDRAW -->
<svg xmlns="http://www.w3.org/2000/svg" xml:space="preserve" width="2048px" height="2048px" style="shape-rendering:geometricPrecision; text-rendering:geometricPrecision; image-rendering:optimizeQuality; fill-rule:evenodd; clip-rule:evenodd"
viewBox="0 0 2048 2048"
 xmlns:xlink="http://www.w3.org/1999/xlink">
 <defs>
  <style type="text/css">
   <![CDATA[
    .fil4 {fill:none}
    .fil1 {fill:#8B8B8B;fill-rule:nonzero}
    .fil2 {fill:#A7A7A7;fill-rule:nonzero}
    .fil0 {fill:#B8B8B8;fill-rule:nonzero}
    .fil3 {fill:#CACACA;fill-rule:nonzero}
   ]]>
  </style>
 </defs>
 <g id="Layer_x0020_1">
  <metadata id="CorelCorpID_0Corel-Layer"/>
  <path class="fil0" d="M431.276 1712.35c-3.34961,16.8201 7.56969,33.176 24.391,36.5256 16.8201,3.35079 33.176,-7.56969 36.5268,-24.3898l36.1642 -180.548c3.35079,-16.8213 -7.56969,-33.176 -24.3898,-36.5268 -7.09607,-1.41378 -14.1095,-0.287008 -20.0977,2.74961 -2.74607,-6.59056 -7.7693,-12.2693 -14.6421,-15.737 -1.60039,-0.806694 -3.23622,-1.45866 -4.89331,-1.96772 -0.915355,-2.15433 -2.09055,-4.23898 -3.53268,-6.21024 -10.1161,-13.8248 -29.5264,-16.8295 -43.3512,-6.71339l-148.749 108.535c-13.8236,10.1173 -16.8295,29.5264 -6.71339,43.35 10.1173,13.8248 29.5264,16.8319 43.3512,6.71339l89.6953 -65.4449 -66.9603 132.71c-7.7067,15.2799 -1.56732,33.9166 13.7126,41.6233 15.2799,7.70552 33.9166,1.56732 41.6233,-13.7126l72.417 -143.525 -24.5516 122.569z"/>
  <path class="fil1" d="M752.195 890.656c-17.3244,34.1918 34.6642,60.5292 51.9863,26.3398 71.054,-139.564 396.313,-466.992 387.829,-478.636 -9.47009,-12.9969 -27.6862,-15.8551 -40.6831,-6.38504 -205.622,150.167 -281.82,228.259 -399.133,458.681z"/>
  <path class="fil2" d="M761.476 844.687c-9.15473,37.2213 47.4378,51.1382 56.5914,13.9205 37.6996,-152.006 280.611,-544.43 269.717,-553.857 -12.1606,-10.5224 -30.5516,-9.19371 -41.0752,2.96693 -166.395,192.724 -222.989,286.007 -285.233,536.97z"/>
  <path class="fil1" d="M727.384 987.763c1.09252,38.315 59.3469,36.6508 58.2544,-1.66063 -4.15985,-156.556 125.421,-599.513 112.409,-605.697 -14.5252,-6.90237 -31.8969,-0.721654 -38.7992,13.8036 -109.036,230.09 -138.732,335.078 -131.864,593.554z"/>
  <path class="fil3" d="M377.029 1497.83c-71.7355,-71.8607 -105.853,-171.604 -53.8028,-275.103 29.3929,-58.4481 88.1587,-120.375 158.473,-179.462 91.2993,-76.7186 202.636,-149.303 292.933,-202.506l45.2162 -26.6433 1.38307 52.6111c1.68189,64.0111 11.537,136.38 21.4063,208.859 20.6362,151.559 41.3398,303.598 -9.08741,403.869 -52.043,103.485 -152.466,135.563 -252.945,120.825 -37.4788,-5.49804 -75.013,-17.6977 -109.862,-35.224 -34.7114,-17.4555 -66.8575,-40.3229 -93.7146,-67.226z"/>
  <g id="_586082464">
   <path id="_586082104" class="fil0" d="M1031.1 1712.35c-3.35079,16.8201 7.56969,33.176 24.391,36.5256 16.8201,3.35079 33.176,-7.56969 36.5256,-24.3898l36.1654 -180.548c3.35079,-16.8213 -7.56969,-33.176 -24.391,-36.5268 -7.09489,-1.41378 -14.1083,-0.287008 -20.0977,2.74961 -2.74488,-6.59056 -7.76812,-12.2693 -14.6421,-15.737 -1.59921,-0.806694 -3.23504,-1.45866 -4.89213,-1.96772 -0.915355,-2.15433 -2.09055,-4.23898 -3.53268,-6.21024 -10.1161,-13.8248 -29.5264,-16.8295 -43.3512,-6.71339l-148.749 108.535c-13.8248,10.1173 -16.8295,29.5264 -6.71339,43.35 10.1173,13.8248 29.5264,16.8319 43.3512,6.71339l89.6953 -65.4449 -66.9603 132.71c-7.7067,15.2799 -1.56732,33.9166 13.7126,41.6233 15.2788,7.70552 33.9166,1.56732 41.6221,-13.7126l72.4182 -143.525 -24.5516 122.569z"/>
   <path id="_586082800" class="fil1" d="M1352.02 890.656c-17.3244,34.1918 34.6642,60.5292 51.9863,26.3398 71.054,-139.564 396.313,-466.992 387.828,-478.636 -9.4689,-12.9969 -27.6851,-15.8551 -40.6831,-6.38504 -205.621,150.167 -281.818,228.259 -399.131,458.681z"/>
   <path id="_586082344" class="fil2" d="M1361.3 844.687c-9.15473,37.2213 47.4378,51.1382 56.5914,13.9205 37.6996,-152.006 280.611,-544.43 269.716,-553.857 -12.1606,-10.5224 -30.5504,-9.19371 -41.074,2.96693 -166.395,192.724 -222.989,286.007 -285.233,536.97z"/>
   <path id="_586082704" class="fil1" d="M1327.21 987.763c1.09134,38.315 59.3469,36.6508 58.2544,-1.66063 -4.15985,-156.556 125.421,-599.513 112.409,-605.697 -14.5252,-6.90237 -31.8969,-0.721654 -38.7992,13.8036 -109.036,230.09 -138.732,335.078 -131.864,593.554z"/>
   <path id="_586082488" class="fil3" d="M976.856 1497.83c-71.7355,-71.8607 -105.853,-171.604 -53.804,-275.103 29.3941,-58.4481 88.1599,-120.375 158.475,-179.462 91.2993,-76.7186 202.636,-149.303 292.933,-202.506l45.2162 -26.6433 1.38307 52.6111c1.68189,64.0111 11.537,136.38 21.4063,208.859 20.6362,151.559 41.3398,303.598 -9.08741,403.869 -52.043,103.485 -152.466,135.563 -252.945,120.825 -37.4788,-5.49804 -75.013,-17.6977 -109.862,-35.224 -34.7114,-17.4555 -66.8575,-40.3229 -93.7146,-67.226z"/>
  </g>
 </g>
 <rect class="fil4" width="2048" height="2048"/>
</svg>
